<svg width="52" height="51" viewBox="0 0 52 51" fill="none" xmlns="http://www.w3.org/2000/svg">
<path d="M20.7122 22.7108V14.8472H26.4972C29.6595 14.8472 31.5087 16.3039 31.5087 18.7902C31.5087 21.3465 29.5457 22.7108 25.7757 22.7108H20.7122ZM20.7122 34.7022H26.8807C30.7287 34.7022 32.7632 33.1722 32.7632 30.313C32.7632 27.492 30.6507 26.0162 26.6337 26.0162H20.7122V34.7022Z" fill="url(#paint0_linear)"/>
<path d="M13 0C9.55219 0 6.24558 1.3433 3.80761 3.73439C1.36964 6.12548 0 9.36849 0 12.75V38.25C0 41.6315 1.36964 44.8745 3.80761 47.2656C6.24558 49.6567 9.55219 51 13 51H39C42.4478 51 45.7544 49.6567 48.1924 47.2656C50.6304 44.8745 52 41.6315 52 38.25V12.75C52 9.36849 50.6304 6.12548 48.1924 3.73439C45.7544 1.3433 42.4478 0 39 0L13 0ZM16.445 38.25V11.2997H27.4918C32.6495 11.2997 35.7565 13.8784 35.7565 18.0253C35.7565 20.8431 33.644 23.3644 30.9368 23.8138V24.1326C34.6515 24.5055 37.1248 27.1001 37.1248 30.6128C37.1248 35.3558 33.6017 38.25 27.7388 38.25H16.445Z" fill="url(#paint1_linear)"/>
<defs>
<linearGradient id="paint0_linear" x1="26.7377" y1="13.1596" x2="26.7377" y2="37.3826" gradientUnits="userSpaceOnUse">
<stop stop-color="#B31E6F"/>
<stop offset="1" stop-color="#E88A1A"/>
<stop offset="1" stop-color="#EE5A5A"/>
</linearGradient>
<linearGradient id="paint1_linear" x1="26" y1="-4.335" x2="26" y2="57.885" gradientUnits="userSpaceOnUse">
<stop stop-color="#B31E6F"/>
<stop offset="1" stop-color="#E88A1A"/>
<stop offset="1" stop-color="#EE5A5A"/>
</linearGradient>
</defs>
</svg>
