<svg width="51" height="51" viewBox="0 0 51 51" fill="none" xmlns="http://www.w3.org/2000/svg">
<path d="M0 0V51H51V0H0ZM27.754 39.7754C27.754 44.7388 24.8397 47.0042 20.5935 47.0042C16.7571 47.0042 14.5373 45.0234 13.3989 42.6214L17.3036 40.265C18.0549 41.5969 18.7379 42.7239 20.3886 42.7239C21.9596 42.7239 22.9614 42.1091 22.9614 39.7071V23.4167H27.754V39.7754ZM39.0924 47.0042C34.6413 47.0042 31.7612 44.8868 30.3609 42.1091L34.2656 39.8551C35.2902 41.5286 36.6335 42.7694 38.99 42.7694C40.9708 42.7694 42.2458 41.779 42.2458 40.4016C42.2458 38.7623 40.948 38.1817 38.7509 37.2141L37.5556 36.7018C34.0949 35.2333 31.8067 33.3777 31.8067 29.473C31.8067 25.8757 34.5502 23.1435 38.8192 23.1435C41.8701 23.1435 44.0558 24.2022 45.6268 26.9799L41.8929 29.3705C41.0732 27.902 40.1853 27.3214 38.8078 27.3214C37.4076 27.3214 36.5196 28.2094 36.5196 29.3705C36.5196 30.8049 37.4076 31.3855 39.4681 32.2848L40.6634 32.7971C44.7388 34.5388 47.027 36.3261 47.027 40.3333C47.027 44.6364 43.6346 47.0042 39.0924 47.0042Z" fill="url(#paint0_linear)"/>
<defs>
<linearGradient id="paint0_linear" x1="25.5" y1="-4.335" x2="25.5" y2="57.885" gradientUnits="userSpaceOnUse">
<stop stop-color="#B31E6F"/>
<stop offset="1" stop-color="#E88A1A"/>
<stop offset="1" stop-color="#EE5A5A"/>
</linearGradient>
</defs>
</svg>
