<svg width="74" height="56" viewBox="0 0 74 56" fill="none" xmlns="http://www.w3.org/2000/svg">
<path d="M28.3793 0.170344C28.7223 0.23691 29.0844 0.322494 29.1892 0.360532C29.2941 0.398569 29.6847 0.531701 30.0468 0.645814C32.2385 1.34951 34.4492 2.88052 35.8595 4.6778C36.1739 5.0867 36.4693 5.41002 36.5265 5.41002C36.5741 5.40051 36.7456 5.21032 36.8886 4.9821C37.5651 3.91704 39.1469 2.44308 40.4524 1.66331C41.2623 1.17834 42.7107 0.550717 43.292 0.417586C43.454 0.389058 43.8828 0.28445 44.2449 0.198865C44.8166 0.0657336 45.5503 0.0467171 49.2952 0.0467171C53.1734 0.0372077 53.7547 0.0562219 54.3455 0.208372C54.7171 0.303466 55.1173 0.398565 55.2507 0.427093C55.3841 0.455621 55.5747 0.51268 55.6795 0.560227C55.7843 0.607774 56.1274 0.731396 56.4418 0.845509C58.7097 1.65381 61.0252 3.71735 62.3212 6.07568C62.6356 6.65575 63.1692 7.94903 63.2645 8.35793C63.3026 8.53861 63.417 9.0331 63.5123 9.45151C63.6743 10.1742 63.6838 11.3154 63.6838 31.1329C63.6838 44.9691 63.7124 52.0726 63.7791 52.1202C63.922 52.2343 70.0967 52.2153 70.1634 52.1011C70.192 52.0536 70.2206 42.7154 70.2111 31.3421V10.6687L69.9824 9.77482C69.8585 9.28033 69.6203 8.58615 69.4583 8.2248C68.5626 6.23733 66.6759 4.63025 64.5414 4.03116C64.2269 3.94557 63.9125 3.85048 63.8458 3.83146C63.7505 3.80293 63.7314 3.66028 63.7886 3.25138C63.8172 2.94708 63.8839 2.62376 63.9315 2.53817C63.9792 2.45259 64.0173 2.23388 64.0173 2.04369C64.0173 1.63479 64.2841 0.351015 64.3889 0.246412C64.4271 0.208375 64.6557 0.217889 64.8844 0.274945C65.1131 0.332001 65.4562 0.417588 65.6372 0.455626C66.1422 0.560229 67.6002 1.20686 68.3053 1.63478C70.2968 2.82346 71.8786 4.56368 72.8696 6.66525C73.0793 7.1217 73.2603 7.56865 73.2603 7.64473C73.2603 7.73031 73.3175 7.91099 73.3937 8.05363C73.47 8.19628 73.5748 8.54812 73.6415 8.8334C73.6987 9.11868 73.7939 9.56562 73.8511 9.83189C74.0036 10.5166 74.0608 55.6957 73.9178 55.8764C73.8321 55.981 72.5647 56 66.9141 56H60.0152L59.9961 44.5602L59.9675 33.1299H54.3931H48.8187L48.7711 44.5412L48.7234 55.9525L24.5487 55.981C1.59359 56 0.37389 55.9905 0.326246 55.8383C0.297659 55.7432 0.288129 47.5176 0.307187 37.5518C0.345302 19.6075 0.354831 19.1986 0.640698 18.4854C0.688342 18.3808 0.80269 18.0385 0.897979 17.7342C1.1362 16.9734 2.05097 15.3473 2.68941 14.5581C4.3379 12.504 6.59625 10.992 8.94036 10.3549C10.5317 9.92698 10.6079 9.92698 18.8028 9.92698H26.6164L26.645 11.6767C26.6546 12.6467 26.6355 13.4645 26.5974 13.5025C26.5497 13.5501 25.3586 13.5786 23.9483 13.5786C15.6963 13.5786 11.8562 13.6071 11.313 13.6927C10.9795 13.7402 10.5126 13.8068 10.2744 13.8448C9.68361 13.9209 8.34004 14.5105 7.54914 15.0335C6.36756 15.8228 5.23362 17.1256 4.68095 18.3428C4.55707 18.6281 4.40461 18.9514 4.35696 19.056C4.19497 19.4269 3.98534 20.3968 3.88052 21.2432C3.82335 21.8042 3.79476 27.2816 3.81382 37.1239L3.8424 52.1487L15.5629 52.1772C27.8361 52.2153 28.3698 52.1962 29.761 51.7968C31.0474 51.426 32.5148 50.7793 33.2581 50.2468C33.5058 50.0661 33.744 49.914 33.7726 49.914C33.8298 49.914 34.9352 48.9726 35.3258 48.5732C36.1358 47.7649 37.0506 46.4906 37.5747 45.4446C37.7176 45.1593 37.8891 44.8074 37.9653 44.6648C38.0416 44.5317 38.0987 44.332 38.0987 44.2369C38.0987 44.1418 38.1369 44.0182 38.194 43.9611C38.2417 43.9136 38.3274 43.6758 38.3751 43.4476C38.4227 43.2099 38.518 42.8485 38.5752 42.6393C38.6419 42.4301 38.7277 41.8976 38.7848 41.4506C38.8992 40.4331 38.8229 34.8511 38.6895 34.4612C38.6324 34.2996 38.5371 33.9858 38.4704 33.748C38.4037 33.5103 38.3274 33.2725 38.2893 33.225C38.2607 33.1679 38.175 32.9587 38.1083 32.7495C37.9749 32.3121 37.9272 32.198 37.5651 31.4182C37.4127 31.1044 37.2697 30.8286 37.2411 30.8001C37.1459 30.7145 36.7647 30.144 36.7647 30.0869C36.7647 29.8967 35.9929 28.8887 35.364 28.2516C33.6869 26.5589 31.4571 25.3132 29.2369 24.8282C28.6175 24.6951 27.5407 24.6761 21.2993 24.6475L14.086 24.619L14.105 33.8621L14.1336 43.1148L19.4221 43.1433C23.2527 43.1623 24.825 43.1338 25.1395 43.0577C26.302 42.7534 27.5884 41.8025 28.122 40.8325C28.8176 39.5868 28.9796 38.0272 28.5222 36.8195C27.9028 35.1839 26.7403 34.1284 25.0823 33.71C24.6249 33.5959 23.9769 33.5578 22.2903 33.5578H20.0892V31.7035V29.8492H22.5476C24.8536 29.8492 25.0537 29.8682 25.9399 30.0964C27.5979 30.5148 28.789 31.19 29.9992 32.4072C31.0474 33.4532 31.7525 34.5848 32.067 35.6974C32.4862 37.1809 32.4862 37.2094 32.4576 38.5503C32.4195 39.8055 32.229 40.8706 31.9145 41.5267C31.0188 43.4191 30.266 44.3415 28.7128 45.4636C28.1982 45.8345 27.0643 46.3955 26.8451 46.3955C26.7689 46.3955 26.6641 46.4335 26.6069 46.4811C26.483 46.5857 25.797 46.7474 24.9489 46.871C24.482 46.9375 21.8234 46.9661 17.3258 46.9471L10.4173 46.9185V33.8907V20.8628L18.8409 20.8343C28.5794 20.8057 29.0558 20.8343 31.3809 21.576C34.1728 22.4699 37.0125 24.3527 38.7753 26.4828C39.5376 27.4148 40.0998 28.1755 40.0998 28.3086C40.0998 28.3562 40.157 28.4228 40.2237 28.4513C40.3571 28.4988 40.8907 29.5354 41.2909 30.5148C41.4243 30.8572 41.6054 31.2661 41.6816 31.4372C41.7578 31.5989 41.815 31.8176 41.815 31.9222C41.815 32.0363 41.8531 32.1409 41.9008 32.1695C41.9484 32.198 42.0056 32.3406 42.0342 32.4833C42.0628 32.6354 42.1771 33.1775 42.2819 33.7005C42.7965 36.1349 42.7965 40.6233 42.2915 43.0767C42.1104 43.9801 42.0628 44.1608 41.9198 44.5412C41.8817 44.6458 41.7674 44.9691 41.6816 45.2544C41.5863 45.5397 41.2719 46.2719 40.986 46.871C40.4905 47.8885 40.2809 48.2308 39.4233 49.4861C39.2517 49.7428 38.6228 50.4465 38.0416 51.0361C37.4603 51.6352 37.0315 52.1392 37.0887 52.1582C37.1459 52.1772 38.9563 52.1867 41.1003 52.1772L45.0072 52.1487L45.0358 40.7564L45.0548 29.3737H52.4207C58.0236 29.3737 59.8151 29.3452 59.9008 29.2596C60.0723 29.0884 60.0628 24.8757 59.8913 24.7236C59.796 24.6475 57.652 24.6095 52.4302 24.6L45.1025 24.5714V16.5836V8.59567H46.913H48.7234L48.752 14.7578L48.7711 20.9103L54.3741 20.8913L59.9675 20.8628V15.6802C59.9675 10.5071 59.9675 10.4975 59.7388 9.6417C59.1385 7.38797 57.6806 5.56216 55.6891 4.57319C54.1835 3.82194 53.3831 3.70783 49.3619 3.70783C46.1221 3.69832 45.2168 3.75538 44.1972 4.04066C41.7483 4.72534 39.7472 6.65575 38.9087 9.16623C38.6609 9.88894 38.5847 10.6402 38.5657 12.2758C38.5657 13.1031 38.518 13.7973 38.4704 13.8353C38.4227 13.8639 38.3846 14.0446 38.3846 14.2347C38.3846 14.4249 38.3179 14.8243 38.2322 15.1096C38.1464 15.3949 38.0606 15.7562 38.032 15.9179C38.0035 16.0701 37.9463 16.2412 37.9082 16.2983C37.8796 16.3458 37.7652 16.6026 37.6699 16.8688C37.4031 17.5916 36.7552 18.7992 36.2406 19.5029C35.7832 20.1401 35.7832 20.1401 35.5736 19.9784C35.2115 19.7026 33.2962 18.1146 33.0198 17.8673C32.9722 17.8293 33.1342 17.506 33.3629 17.1446C34.4492 15.4614 34.8208 14.016 34.735 11.8289C34.6874 10.5071 34.5254 9.84139 34.0013 8.68124C33.1342 6.78887 31.3618 5.09621 29.5227 4.39252C27.6456 3.67931 27.7599 3.6793 14.9912 3.71734L3.8424 3.74587L3.81382 7.24534L3.79476 10.7353L1.90804 10.7163L0.0308496 10.6877L0.00226414 5.46707C-0.00726474 1.62528 0.0117924 0.217882 0.0880235 0.113278C0.250015 -0.0674003 27.4169 -0.019844 28.3793 0.170344Z" fill="#D9D9D9"/>
</svg>
