<svg width="58" height="51" viewBox="0 0 58 51" fill="none" xmlns="http://www.w3.org/2000/svg">
<path d="M29 20.3889C26.1489 20.3889 23.8271 22.6835 23.8271 25.5012C23.8271 28.3189 26.1489 30.6135 29 30.6135C31.8511 30.6135 34.1729 28.3189 34.1729 25.5012C34.1729 22.6835 31.8511 20.3889 29 20.3889ZM14.5181 35.6613L13.3763 35.3819C4.87925 33.2539 0 29.6534 0 25.4923C0 21.3311 4.88106 17.7307 13.3763 15.6026L14.5181 15.3232L14.8389 16.4427C15.7009 19.3751 16.8029 22.2332 18.1341 24.9889L18.3788 25.4923L18.1341 26.0046C16.8001 28.7591 15.698 31.6174 14.8389 34.5507L14.5181 35.6613ZM12.8488 18.2143C6.39088 20.0056 2.42694 22.757 2.42694 25.4923C2.42694 28.2275 6.39269 30.9682 12.8488 32.7702C13.6402 30.2851 14.5957 27.8539 15.7089 25.4923C14.5941 23.1313 13.6386 20.7 12.8488 18.2143ZM43.4819 35.6613L43.1611 34.5418C42.3006 31.6118 41.1985 28.7565 39.8659 26.0046L39.6213 25.4923L39.8659 24.98C41.1999 22.2255 42.302 19.3671 43.1611 16.4338L43.4819 15.3232L44.6238 15.6026C53.1208 17.7307 58 21.3311 58 25.4923C58 29.6534 53.1189 33.2539 44.6238 35.3819L43.4819 35.6613ZM42.2911 25.4923C43.408 27.8523 44.3636 30.2837 45.1512 32.7702C51.6182 30.97 55.5731 28.2275 55.5731 25.4923C55.5731 22.757 51.6073 20.0163 45.1512 18.2143C44.3579 20.6988 43.4025 23.1299 42.2911 25.4923ZM12.8289 18.2054L12.5081 17.0858C10.1192 8.76356 10.846 2.79324 14.5 0.711784C18.0869 -1.33206 23.8362 1.08437 29.8682 7.20515L30.6892 8.0363L29.8682 8.86745C27.7261 11.07 25.7688 13.4411 24.0156 15.9573L23.6858 16.4141L23.1184 16.4607C20.0344 16.7012 16.9752 17.1883 13.9707 17.917L12.8289 18.2054ZM17.4163 2.37409C16.7656 2.37409 16.1893 2.50485 15.7071 2.78429C13.3092 4.1564 12.8851 8.91403 14.5363 15.3322C17.1126 14.7626 19.724 14.3605 22.3536 14.1284C23.8675 11.9975 25.5229 9.9683 27.3089 8.05422C23.5426 4.4251 19.9738 2.3723 17.4163 2.3723V2.37409ZM40.5928 50.9982C40.5837 50.9982 40.5837 50.9982 40.5928 50.9982C37.1472 50.9982 32.7192 48.4421 28.1318 43.7776L27.3107 42.9464L28.1318 42.1153C30.2739 39.9127 32.2312 37.5416 33.9844 35.0254L34.3052 34.5686L34.8725 34.5131C37.9605 34.2806 41.0234 33.7935 44.0293 33.0568L45.1711 32.7774L45.4919 33.8969C47.8808 42.2192 47.154 48.1805 43.5 50.2602C42.6166 50.762 41.6115 51.0165 40.5928 50.9964V50.9982ZM30.6892 42.9285C34.4556 46.5576 38.0244 48.6104 40.5819 48.6104H40.5909C41.2326 48.6104 41.8089 48.4707 42.2911 48.2002C44.689 46.8281 45.124 42.0705 43.4619 35.6524C40.8861 36.2225 38.2744 36.6217 35.6446 36.8471C34.1308 38.981 32.4754 41.0131 30.6892 42.9303V42.9285ZM45.1711 18.2054L44.0293 17.917C41.0212 17.1907 37.9592 16.7037 34.8725 16.4607L34.3052 16.4141L33.9844 15.9573C32.2312 13.4411 30.2739 11.07 28.1318 8.86745L27.3107 8.0363L28.1318 7.20515C34.1638 1.08437 39.9131 -1.33206 43.5 0.711784C47.154 2.79145 47.8808 8.76356 45.4919 17.0858L45.1711 18.2054ZM35.6464 14.1284C38.2761 14.3599 40.8875 14.762 43.4637 15.3322C45.1258 8.91403 44.6908 4.15461 42.2929 2.78429C39.904 1.42292 35.4108 3.51155 30.6911 8.05601C32.4723 9.9742 34.1274 12.0031 35.6464 14.1302V14.1284ZM17.4163 50.9982C16.3959 51.0161 15.3863 50.7653 14.5 50.262C10.846 48.1823 10.1192 42.2192 12.5081 33.8987L12.8289 32.7792L13.9707 33.0586C16.7656 33.759 19.8433 34.2426 23.1184 34.5149L23.6858 34.5704L24.0066 35.0272C25.7597 37.5434 27.717 39.9145 29.8591 42.1171L30.6802 42.9482L29.8591 43.7794C25.2808 48.4439 20.8528 51 17.4163 51V50.9982ZM14.5381 35.6524C12.876 42.0705 13.311 46.8299 15.7089 48.2002C18.0978 49.5437 22.5819 47.473 27.3107 42.9285C25.5246 41.0114 23.8692 38.9792 22.3554 36.8454C19.7255 36.6206 17.1138 36.2214 14.5381 35.6506V35.6524ZM29 37.1535C27.0081 37.1535 24.969 37.0693 22.9209 36.9009L22.3536 36.8543L22.0237 36.3886C20.8668 34.7458 19.7801 33.0557 18.7666 31.3229C17.751 29.5899 16.8095 27.8156 15.9446 26.0046L15.6999 25.4923L15.9446 24.98C17.6774 21.3587 19.7107 17.8855 22.0237 14.5959L22.3536 14.1302L22.9209 14.0836C26.9665 13.7469 31.0335 13.7469 35.0791 14.0836L35.6464 14.1302L35.9763 14.5959C38.2923 17.8836 40.3258 21.3571 42.0554 24.98L42.3001 25.4923L42.0554 26.0046C40.3292 29.6293 38.2956 33.103 35.9763 36.3886L35.6464 36.8543L35.0791 36.9009C33.0572 37.0681 31.029 37.1524 29 37.1535ZM23.6948 34.5597C27.2636 34.8302 30.7364 34.8302 34.3142 34.5597C36.3097 31.672 38.083 28.6404 39.6194 25.4905C38.0895 22.3353 36.3127 19.3031 34.3052 16.4213C30.7737 16.1508 27.2263 16.1508 23.6948 16.4213C21.6859 19.3022 19.909 22.3346 18.3806 25.4905C19.9174 28.642 21.6939 31.6737 23.6948 34.5597Z" fill="url(#paint0_linear)"/>
<defs>
<linearGradient id="paint0_linear" x1="29" y1="-4.335" x2="29" y2="57.885" gradientUnits="userSpaceOnUse">
<stop stop-color="#B31E6F"/>
<stop offset="1" stop-color="#E88A1A"/>
<stop offset="1" stop-color="#EE5A5A"/>
</linearGradient>
</defs>
</svg>
