<svg width="67" height="51" viewBox="0 0 67 51" fill="none" xmlns="http://www.w3.org/2000/svg">
<path d="M16.75 17.0001C18.9827 5.66746 24.5673 0 33.5 0C46.9 0 48.575 12.75 55.275 14.8749C59.7423 16.2923 63.65 14.1674 67 8.49994C64.7673 19.8325 59.1827 25.5 50.25 25.5C36.85 25.5 35.175 12.75 28.475 10.6251C24.0077 9.20765 20.1 11.3326 16.75 17.0001ZM0 42.5001C2.23272 31.1675 7.81728 25.5 16.75 25.5C30.15 25.5 31.825 38.25 38.525 40.3749C42.9923 41.7923 46.9 39.6674 50.25 33.9999C48.0173 45.3325 42.4327 51 33.5 51C20.1 51 18.425 38.25 11.725 36.1251C7.25772 34.7077 3.35 36.8326 0 42.5001Z" fill="url(#paint0_linear)"/>
<defs>
<linearGradient id="paint0_linear" x1="33.5" y1="-4.335" x2="33.5" y2="57.885" gradientUnits="userSpaceOnUse">
<stop stop-color="#B31E6F"/>
<stop offset="1" stop-color="#E88A1A"/>
<stop offset="1" stop-color="#EE5A5A"/>
</linearGradient>
</defs>
</svg>
